<?xml version="1.0" standalone="no"?><!DOCTYPE svg PUBLIC "-//W3C//DTD SVG 1.1//EN" "http://www.w3.org/Graphics/SVG/1.1/DTD/svg11.dtd"><svg t="1689121017900" class="icon" viewBox="0 0 1024 1024" version="1.1" xmlns="http://www.w3.org/2000/svg" p-id="3909" xmlns:xlink="http://www.w3.org/1999/xlink" width="200" height="200"><path d="M42.666667 682.666667a42.666667 42.666667 0 0 1 42.666666 42.666666v213.333334h853.333334v-213.333334a42.666667 42.666667 0 1 1 85.333333 0v256a42.666667 42.666667 0 0 1-42.666667 42.666667H42.666667a42.666667 42.666667 0 0 1-42.666667-42.666667v-256a42.666667 42.666667 0 0 1 42.666667-42.666666z" p-id="3910"></path><path d="M542.165333 755.498667a42.666667 42.666667 0 0 1-60.330666 0l-298.666667-298.666667a42.666667 42.666667 0 0 1 60.330667-60.330667L512 665.002667l268.501333-268.501334a42.666667 42.666667 0 1 1 60.330667 60.330667l-298.666667 298.666667z" p-id="3911"></path><path d="M512 768a42.666667 42.666667 0 0 1-42.666667-42.666667V42.666667a42.666667 42.666667 0 1 1 85.333334 0v682.666666a42.666667 42.666667 0 0 1-42.666667 42.666667z" p-id="3912"></path></svg>