<?xml version="1.0" standalone="no"?><!DOCTYPE svg PUBLIC "-//W3C//DTD SVG 1.1//EN" "http://www.w3.org/Graphics/SVG/1.1/DTD/svg11.dtd"><svg t="1689120980553" class="icon" viewBox="0 0 1024 1024" version="1.1" xmlns="http://www.w3.org/2000/svg" p-id="3474" xmlns:xlink="http://www.w3.org/1999/xlink" width="200" height="200"><path d="M0 981.333333a42.666667 42.666667 0 0 0 42.666667 42.666667h938.666666a42.666667 42.666667 0 0 0 42.666667-42.666667V256a42.666667 42.666667 0 0 0-12.501333-30.165333l-213.333334-213.333334A42.666667 42.666667 0 0 0 768 0H42.666667a42.666667 42.666667 0 0 0-42.666667 42.666667v938.666666z m85.333333-42.666666V85.333333h665.002667L938.666667 273.664V938.666667H85.333333z" p-id="3475"></path><path d="M213.333333 640a42.666667 42.666667 0 0 1 42.666667-42.666667h512a42.666667 42.666667 0 0 1 42.666667 42.666667v341.333333a42.666667 42.666667 0 1 1-85.333334 0v-298.666666H298.666667v298.666666a42.666667 42.666667 0 1 1-85.333334 0v-341.333333zM256 0a42.666667 42.666667 0 0 1 42.666667 42.666667v213.333333h426.666666a42.666667 42.666667 0 1 1 0 85.333333H256a42.666667 42.666667 0 0 1-42.666667-42.666666V42.666667a42.666667 42.666667 0 0 1 42.666667-42.666667z" p-id="3476"></path></svg>