<?xml version="1.0" standalone="no"?><!DOCTYPE svg PUBLIC "-//W3C//DTD SVG 1.1//EN" "http://www.w3.org/Graphics/SVG/1.1/DTD/svg11.dtd"><svg t="1689121011607" class="icon" viewBox="0 0 1024 1024" version="1.1" xmlns="http://www.w3.org/2000/svg" p-id="3763" xmlns:xlink="http://www.w3.org/1999/xlink" width="200" height="200"><path d="M42.624 213.290667a42.666667 42.666667 0 0 0 42.666667 42.666666H938.666667a42.666667 42.666667 0 1 0 0-85.333333H85.333333a42.666667 42.666667 0 0 0-42.666666 42.666667zM597.333333 767.957333a42.666667 42.666667 0 0 0 42.666667-42.666666v-256a42.666667 42.666667 0 1 0-85.333333 0v256a42.666667 42.666667 0 0 0 42.666666 42.666666zM426.709333 767.957333a42.666667 42.666667 0 0 0 42.666667-42.666666v-256a42.666667 42.666667 0 1 0-85.333333 0v256a42.666667 42.666667 0 0 0 42.666666 42.666666z" p-id="3764"></path><path d="M128.042667 981.290667a42.666667 42.666667 0 0 0 42.666666 42.666666h682.666667a42.666667 42.666667 0 0 0 42.666667-42.666666v-768a42.666667 42.666667 0 0 0-42.666667-42.666667h-682.666667a42.666667 42.666667 0 0 0-42.666666 42.666667v768z m85.333333-42.666667v-682.666667h597.333333v682.666667h-597.333333z" p-id="3765"></path><path d="M298.709333 213.290667a42.666667 42.666667 0 0 0 42.666667 42.666666h341.333333a42.666667 42.666667 0 0 0 42.666667-42.666666v-170.666667a42.666667 42.666667 0 0 0-42.666667-42.666667h-341.333333a42.666667 42.666667 0 0 0-42.666667 42.666667v170.666667z m85.333334-42.666667v-85.333333h256v85.333333h-256z" p-id="3766"></path></svg>