<?xml version="1.0" standalone="no"?><!DOCTYPE svg PUBLIC "-//W3C//DTD SVG 1.1//EN" "http://www.w3.org/Graphics/SVG/1.1/DTD/svg11.dtd"><svg t="1689121085673" class="icon" viewBox="0 0 1024 1024" version="1.1" xmlns="http://www.w3.org/2000/svg" p-id="4343" xmlns:xlink="http://www.w3.org/1999/xlink" width="200" height="200"><path d="M526.848 85.333333c-194.005333 0-356.266667 131.968-400.085333 308.906667a42.666667 42.666667 0 1 1-82.858667-20.48C97.152 158.805333 293.461333 0 526.933333 0 800.768 0 1024 219.093333 1024 490.666667S800.853333 981.333333 526.848 981.333333c-221.184 0-409.002667-142.634667-473.386667-340.394666a42.666667 42.666667 0 1 1 81.152-26.453334C187.690667 777.557333 343.04 896 526.848 896 754.858667 896 938.666667 713.941333 938.666667 490.666667S754.858667 85.333333 526.848 85.333333z" p-id="4344"></path><path d="M42.666667 85.333333a42.666667 42.666667 0 0 1 42.666666 42.666667v213.333333h213.333334a42.666667 42.666667 0 1 1 0 85.333334H42.666667a42.666667 42.666667 0 0 1-42.666667-42.666667V128a42.666667 42.666667 0 0 1 42.666667-42.666667zM512 256a42.666667 42.666667 0 0 1 42.666667 42.666667v170.666666a42.666667 42.666667 0 1 1-85.333334 0V298.666667a42.666667 42.666667 0 0 1 42.666667-42.666667z" p-id="4345"></path><path d="M481.834667 439.168a42.666667 42.666667 0 0 1 60.330666 0l120.704 120.661333a42.666667 42.666667 0 1 1-60.373333 60.373334l-120.661333-120.704a42.666667 42.666667 0 0 1 0-60.330667z" p-id="4346"></path></svg>