<?xml version="1.0" standalone="no"?><!DOCTYPE svg PUBLIC "-//W3C//DTD SVG 1.1//EN" "http://www.w3.org/Graphics/SVG/1.1/DTD/svg11.dtd"><svg t="1689121033415" class="icon" viewBox="0 0 1024 1024" version="1.1" xmlns="http://www.w3.org/2000/svg" p-id="4055" xmlns:xlink="http://www.w3.org/1999/xlink" width="200" height="200"><path d="M469.333333 682.666667a42.666667 42.666667 0 1 0 85.333334 0V188.330667l97.834666 97.834666a42.666667 42.666667 0 1 0 60.330667-60.330666l-170.666667-170.666667a42.666667 42.666667 0 0 0-60.330666 0l-170.666667 170.666667a42.666667 42.666667 0 0 0 60.330667 60.330666L469.333333 188.330667V682.666667zM42.666667 896a42.666667 42.666667 0 1 0 0 85.333333h938.666666a42.666667 42.666667 0 1 0 0-85.333333H42.666667z" p-id="4056"></path></svg>