<?xml version="1.0" standalone="no"?><!DOCTYPE svg PUBLIC "-//W3C//DTD SVG 1.1//EN" "http://www.w3.org/Graphics/SVG/1.1/DTD/svg11.dtd"><svg t="1690540501661" class="icon" viewBox="0 0 1024 1024" version="1.1" xmlns="http://www.w3.org/2000/svg" p-id="3187" xmlns:xlink="http://www.w3.org/1999/xlink" width="200" height="200"><path d="M661.76 85.333333a42.666667 42.666667 0 0 1 42.666667-42.666666H938.666667a42.666667 42.666667 0 0 1 42.666666 42.666666v234.24a42.666667 42.666667 0 1 1-85.333333 0V188.330667l-268.501333 268.501333a42.666667 42.666667 0 0 1-60.330667-60.330667L835.669333 128H704.426667a42.666667 42.666667 0 0 1-42.666667-42.666667z m-204.928 481.834667a42.666667 42.666667 0 0 1 0 60.330667L188.330667 896H319.573333a42.666667 42.666667 0 1 1 0 85.333333H85.333333a42.666667 42.666667 0 0 1-42.666666-42.666666v-234.24a42.666667 42.666667 0 1 1 85.333333 0v131.242666l268.501333-268.501333a42.666667 42.666667 0 0 1 60.330667 0z" p-id="3188"></path></svg>