<?xml version="1.0" standalone="no"?><!DOCTYPE svg PUBLIC "-//W3C//DTD SVG 1.1//EN" "http://www.w3.org/Graphics/SVG/1.1/DTD/svg11.dtd"><svg t="1689121119026" class="icon" viewBox="0 0 1024 1024" version="1.1" xmlns="http://www.w3.org/2000/svg" p-id="4489" xmlns:xlink="http://www.w3.org/1999/xlink" width="200" height="200"><path d="M0 85.333333a42.666667 42.666667 0 0 1 42.666667-42.666666h352a42.666667 42.666667 0 0 1 39.381333 26.24L476.458667 170.666667H981.333333a42.666667 42.666667 0 0 1 42.666667 42.666666v234.666667a42.666667 42.666667 0 1 1-85.333333 0V256H448a42.666667 42.666667 0 0 1-39.381333-26.24L366.208 128H85.333333v810.666667h384a42.666667 42.666667 0 1 1 0 85.333333H42.666667a42.666667 42.666667 0 0 1-42.666667-42.666667V85.333333z" p-id="4490"></path><path d="M0 384.042667a42.666667 42.666667 0 0 1 42.666667-42.666667h938.709333a42.666667 42.666667 0 0 1 0 85.333333H42.666667a42.666667 42.666667 0 0 1-42.666667-42.666666zM170.666667 640a42.666667 42.666667 0 0 1 42.666666-42.666667h170.666667a42.666667 42.666667 0 1 1 0 85.333334H213.333333a42.666667 42.666667 0 0 1-42.666666-42.666667zM789.333333 640c-64.938667 0-120.32 41.514667-140.8 99.584a42.666667 42.666667 0 0 1-80.469333-28.458667 234.752 234.752 0 0 1 442.581333 0 42.666667 42.666667 0 0 1-80.426666 28.458667A149.418667 149.418667 0 0 0 789.333333 640z" p-id="4491"></path><path d="M768 725.333333a42.666667 42.666667 0 0 1 42.666667-42.666666h159.573333a42.666667 42.666667 0 0 1 0 85.333333H810.666667a42.666667 42.666667 0 0 1-42.666667-42.666667zM789.333333 917.333333c64.981333 0 120.32-41.472 140.885334-99.541333a42.666667 42.666667 0 0 1 80.426666 28.458667 234.752 234.752 0 0 1-442.581333 0 42.666667 42.666667 0 0 1 80.426667-28.458667A149.418667 149.418667 0 0 0 789.333333 917.333333z" p-id="4492"></path><path d="M810.666667 832a42.666667 42.666667 0 0 1-42.666667 42.666667h-159.573333a42.666667 42.666667 0 1 1 0-85.333334H768a42.666667 42.666667 0 0 1 42.666667 42.666667z" p-id="4493"></path></svg>