<?xml version="1.0" standalone="no"?><!DOCTYPE svg PUBLIC "-//W3C//DTD SVG 1.1//EN" "http://www.w3.org/Graphics/SVG/1.1/DTD/svg11.dtd"><svg t="1689121125106" class="icon" viewBox="0 0 1024 1024" version="1.1" xmlns="http://www.w3.org/2000/svg" p-id="4636" xmlns:xlink="http://www.w3.org/1999/xlink" width="200" height="200"><path d="M85.332836 42.672391a42.666418 42.666418 0 0 1 42.666417-42.666418h469.330596v85.332836H170.665671v853.328355h682.662685V341.337316h85.332835v639.996266a42.666418 42.666418 0 0 1-42.666418 42.666418H127.999253a42.666418 42.666418 0 0 1-42.666417-42.666418V42.672391z" p-id="4637"></path><path d="M580.988611 3.248621a42.666418 42.666418 0 0 1 46.506395 9.258613l298.664925 298.664924A42.666418 42.666418 0 0 1 895.994773 384.003733h-298.664924a42.666418 42.666418 0 0 1-42.666418-42.666417V42.672391a42.666418 42.666418 0 0 1 26.32518-39.42377zM639.996267 145.669124V298.670898h153.001774L639.996267 145.669124zM341.331342 682.668658a42.666418 42.666418 0 0 1 42.666418-42.666418h255.998507a42.666418 42.666418 0 1 1 0 85.332836H383.99776a42.666418 42.666418 0 0 1-42.666418-42.666418z" p-id="4638"></path><path d="M511.997013 853.334329a42.666418 42.666418 0 0 1-42.666417-42.666418v-255.998507a42.666418 42.666418 0 1 1 85.332835 0v255.998507a42.666418 42.666418 0 0 1-42.666418 42.666418z" p-id="4639"></path></svg>