<?xml version="1.0" standalone="no"?><!DOCTYPE svg PUBLIC "-//W3C//DTD SVG 1.1//EN" "http://www.w3.org/Graphics/SVG/1.1/DTD/svg11.dtd"><svg t="1690798056644" class="icon" viewBox="0 0 1024 1024" version="1.1" xmlns="http://www.w3.org/2000/svg" p-id="3187" xmlns:xlink="http://www.w3.org/1999/xlink" width="200" height="200"><path d="M62.464 659.797333A213.333333 213.333333 0 0 1 213.333333 597.333333h298.666667a213.333333 213.333333 0 0 1 213.333333 213.333334v85.333333a42.666667 42.666667 0 1 1-85.333333 0v-85.333333a128 128 0 0 0-128-128H213.333333a128 128 0 0 0-128 128v85.333333a42.666667 42.666667 0 1 1-85.333333 0v-85.333333a213.333333 213.333333 0 0 1 62.464-150.869334zM362.666667 170.666667a128 128 0 1 0 0 256 128 128 0 0 0 0-256z m-213.333334 128a213.333333 213.333333 0 1 1 426.666667 0 213.333333 213.333333 0 0 1-426.666667 0zM737.834667 311.168a42.666667 42.666667 0 0 1 60.330666 0l213.333334 213.333333a42.666667 42.666667 0 0 1-60.330667 60.330667l-213.333333-213.333333a42.666667 42.666667 0 0 1 0-60.330667z" p-id="3188"></path><path d="M1011.498667 311.168a42.666667 42.666667 0 0 1 0 60.330667l-213.333334 213.333333a42.666667 42.666667 0 0 1-60.330666-60.330667l213.333333-213.333333a42.666667 42.666667 0 0 1 60.330667 0z" p-id="3189"></path></svg>