<?xml version="1.0" standalone="no"?><!DOCTYPE svg PUBLIC "-//W3C//DTD SVG 1.1//EN" "http://www.w3.org/Graphics/SVG/1.1/DTD/svg11.dtd"><svg t="1689121143511" class="icon" viewBox="0 0 1024 1024" version="1.1" xmlns="http://www.w3.org/2000/svg" p-id="4782" xmlns:xlink="http://www.w3.org/1999/xlink" width="200" height="200"><path d="M0 128a42.666667 42.666667 0 0 1 42.666667-42.666667h938.666666a42.666667 42.666667 0 0 1 42.666667 42.666667v853.333333a42.666667 42.666667 0 0 1-42.666667 42.666667H42.666667a42.666667 42.666667 0 0 1-42.666667-42.666667V128z m85.333333 42.666667v768h853.333334V170.666667H85.333333z" p-id="4783"></path><path d="M981.333333 426.666667H42.666667V341.333333h938.666666v85.333334zM298.666667 0a42.666667 42.666667 0 0 1 42.666666 42.666667v170.666666a42.666667 42.666667 0 0 1-85.333333 0V42.666667a42.666667 42.666667 0 0 1 42.666667-42.666667zM725.333333 0a42.666667 42.666667 0 0 1 42.666667 42.666667v170.666666a42.666667 42.666667 0 1 1-85.333333 0V42.666667a42.666667 42.666667 0 0 1 42.666666-42.666667z" p-id="4784"></path></svg>