<?xml version="1.0" standalone="no"?><!DOCTYPE svg PUBLIC "-//W3C//DTD SVG 1.1//EN" "http://www.w3.org/Graphics/SVG/1.1/DTD/svg11.dtd"><svg t="1689120959134" class="icon" viewBox="0 0 1024 1024" version="1.1" xmlns="http://www.w3.org/2000/svg" p-id="3184" xmlns:xlink="http://www.w3.org/1999/xlink" width="200" height="200"><path d="M0 42.666667a42.666667 42.666667 0 0 1 42.666667-42.666667h938.666666a42.666667 42.666667 0 0 1 42.666667 42.666667v938.666666a42.666667 42.666667 0 0 1-42.666667 42.666667H42.666667a42.666667 42.666667 0 0 1-42.666667-42.666667V42.666667z m85.333333 42.666666v853.333334h853.333334V85.333333H85.333333z" p-id="3185"></path><path d="M981.333333 298.666667H42.666667V213.333333h938.666666v85.333334zM213.333333 512a42.666667 42.666667 0 0 0 42.666667 42.666667h512a42.666667 42.666667 0 1 0 0-85.333334H256a42.666667 42.666667 0 0 0-42.666667 42.666667zM213.333333 725.333333a42.666667 42.666667 0 0 1 42.666667-42.666666h426.666667a42.666667 42.666667 0 1 1 0 85.333333H256a42.666667 42.666667 0 0 1-42.666667-42.666667z" p-id="3186"></path></svg>