<?xml version="1.0" standalone="no"?><!DOCTYPE svg PUBLIC "-//W3C//DTD SVG 1.1//EN" "http://www.w3.org/Graphics/SVG/1.1/DTD/svg11.dtd"><svg t="1689120997492" class="icon" viewBox="0 0 1024 1024" version="1.1" xmlns="http://www.w3.org/2000/svg" p-id="3619" xmlns:xlink="http://www.w3.org/1999/xlink" width="200" height="200"><path d="M132.181333 647.381333A231.253333 231.253333 0 0 1 298.666667 576h384a231.253333 231.253333 0 0 1 166.485333 71.381333 245.589333 245.589333 0 0 1 68.181333 170.410667V917.333333a42.666667 42.666667 0 1 1-85.333333 0v-99.541333c0-41.984-16.085333-81.962667-44.288-111.189333A145.92 145.92 0 0 0 682.666667 661.333333H298.666667a145.92 145.92 0 0 0-105.045334 45.269334A160.256 160.256 0 0 0 149.333333 817.792V917.333333a42.666667 42.666667 0 1 1-85.333333 0v-99.541333c0-63.658667 24.32-124.970667 68.181333-170.410667zM490.666667 149.333333a128 128 0 1 0 0 256 128 128 0 0 0 0-256z m-213.333334 128a213.333333 213.333333 0 1 1 426.666667 0 213.333333 213.333333 0 0 1-426.666667 0z" p-id="3620"></path></svg>