<?xml version="1.0" standalone="no"?><!DOCTYPE svg PUBLIC "-//W3C//DTD SVG 1.1//EN" "http://www.w3.org/Graphics/SVG/1.1/DTD/svg11.dtd"><svg t="1689120977298" class="icon" viewBox="0 0 1026 1024" version="1.1" xmlns="http://www.w3.org/2000/svg" p-id="3329" xmlns:xlink="http://www.w3.org/1999/xlink" width="200.390625" height="200"><path d="M979.174661 1024a42.572811 42.572811 0 0 0 42.572812-42.572811V513.126264a42.572811 42.572811 0 1 0-85.145623 0v425.728113H85.145623V87.39815h425.728113a42.572811 42.572811 0 1 0 0-85.145623H42.572811a42.572811 42.572811 0 0 0-42.572811 42.572812v936.60185a42.572811 42.572811 0 0 0 42.572811 42.572811h936.60185z" p-id="3330"></path><path d="M936.60185 143.594261c0 14.900484-5.917621 29.162376-16.433105 39.720433l-433.816948 433.816948-105.921155 26.480289 26.437716-105.878582 433.816948-433.816948A56.196111 56.196111 0 0 1 936.60185 143.594261z m43.76485 99.918388A141.341734 141.341734 0 1 0 780.529923 43.675873L338.326132 485.837092a42.572811 42.572811 0 0 0-11.19665 19.796357l-46.532082 186.170904a42.572811 42.572811 0 0 0 51.64082 51.64082l186.170904-46.574655c7.492815-1.873204 14.304465-5.704757 19.796357-11.19665L980.324127 243.512649z" p-id="3331"></path></svg>