<?xml version="1.0" standalone="no"?><!DOCTYPE svg PUBLIC "-//W3C//DTD SVG 1.1//EN" "http://www.w3.org/Graphics/SVG/1.1/DTD/svg11.dtd"><svg t="1689121062478" class="icon" viewBox="0 0 1024 1024" version="1.1" xmlns="http://www.w3.org/2000/svg" p-id="4199" xmlns:xlink="http://www.w3.org/1999/xlink" width="200" height="200"><path d="M736.84443 12.513555a42.666151 42.666151 0 0 1 60.372604 0l214.269411 214.269411a42.666151 42.666151 0 0 1 0 60.372604L346.321149 952.320866a42.666151 42.666151 0 0 1-21.162411 11.519861l-273.490029 59.177952a42.666151 42.666151 0 0 1-50.687388-50.730054l59.135286-273.447363a42.666151 42.666151 0 0 1 11.519861-21.119744L736.84443 12.513555z m30.164969 90.494907L140.883631 729.176896l-42.495487 196.43496 196.43496-42.495487L920.991538 256.947935l-153.939473-153.939473zM682.658418 810.669244a42.666151 42.666151 0 0 1 42.666151-42.666151h255.996907a42.666151 42.666151 0 1 1 0 85.332303h-255.996907a42.666151 42.666151 0 0 1-42.666151-42.666152zM511.993813 981.333849a42.666151 42.666151 0 0 1 42.666152-42.666151h426.661511a42.666151 42.666151 0 1 1 0 85.332302H554.659965a42.666151 42.666151 0 0 1-42.666152-42.666151z" p-id="4200"></path></svg>