<?xml version="1.0" standalone="no"?><!DOCTYPE svg PUBLIC "-//W3C//DTD SVG 1.1//EN" "http://www.w3.org/Graphics/SVG/1.1/DTD/svg11.dtd"><svg t="1689121921377" class="icon" viewBox="0 0 1024 1024" version="1.1" xmlns="http://www.w3.org/2000/svg" p-id="3329" xmlns:xlink="http://www.w3.org/1999/xlink" width="200" height="200"><path d="M580.891788 90.051961c-82.344437-12.159671-166.395493-0.554652-242.169442 33.407095a430.324345 430.324345 0 0 0-184.869659 157.905057A422.985877 422.985877 0 0 0 85.331876 512.867177a422.985877 422.985877 0 0 0 69.459452 231.24707 430.367011 430.367011 0 0 0 185.509642 157.137077 436.425513 436.425513 0 0 0 242.297438 32.468454 433.993579 433.993579 0 0 0 221.220675-102.73855 42.665511 42.665511 0 0 1 56.318475 64.126263 519.324602 519.324602 0 0 1-264.739497 123.004668c-98.344003 14.932929-198.906613 1.407962-289.69882-38.825615a515.698033 515.698033 0 0 1-222.287313-188.368231A508.359565 508.359565 0 0 1 0.000853 513.037839a508.3169 508.3169 0 0 1 82.344437-278.179133 515.655368 515.655368 0 0 1 221.434003-189.264208 521.756536 521.756536 0 0 1 289.570824-39.977583 519.409933 519.409933 0 0 1 265.208817 121.93803 42.665511 42.665511 0 0 1-56.019816 64.339591 434.07891 434.07891 0 0 0-221.64733-101.842575z" p-id="3330"></path><path d="M1011.472126 542.178383a42.665511 42.665511 0 0 0 0-60.329033l-127.996533-127.996534a42.665511 42.665511 0 1 0-60.329033 60.329033L920.978577 512.013866l-97.832017 97.832017a42.665511 42.665511 0 0 0 60.329033 60.329033l127.996533-127.996533z" p-id="3331"></path><path d="M1023.973121 512.013866a42.665511 42.665511 0 0 0-42.665511-42.665511H554.652498a42.665511 42.665511 0 1 0 0 85.331022h426.655112a42.665511 42.665511 0 0 0 42.665511-42.665511z" p-id="3332"></path></svg>