<?xml version="1.0" standalone="no"?><!DOCTYPE svg PUBLIC "-//W3C//DTD SVG 1.1//EN" "http://www.w3.org/Graphics/SVG/1.1/DTD/svg11.dtd"><svg t="1689121341438" class="icon" viewBox="0 0 1024 1024" version="1.1" xmlns="http://www.w3.org/2000/svg" p-id="3184" xmlns:xlink="http://www.w3.org/1999/xlink" width="200" height="200"><path d="M487.253333 7.936a42.666667 42.666667 0 0 1 49.493334 0l469.333333 334.634667a42.666667 42.666667 0 0 1 17.92 34.730666V980.906667a42.666667 42.666667 0 0 1-42.581333 42.666666l-298.666667 0.426667a42.666667 42.666667 0 1 1-0.128-85.333333L938.666667 938.282667V399.274667l-426.666667-304.213334-426.666667 304.213334v539.008L332.885333 938.666667a42.666667 42.666667 0 1 1-0.170666 85.333333l-290.133334-0.426667a42.666667 42.666667 0 0 1-42.581333-42.666666V377.301333a42.666667 42.666667 0 0 1 17.92-34.730666l469.333333-334.634667z" p-id="3185"></path><path d="M298.666667 810.666667a213.333333 213.333333 0 0 1 426.666666 0v170.666666a42.666667 42.666667 0 1 1-85.333333 0v-170.666666a128 128 0 1 0-256 0v170.666666a42.666667 42.666667 0 1 1-85.333333 0v-170.666666z" p-id="3186"></path></svg>